<svg xmlns="http://www.w3.org/2000/svg" width="90" height="90" viewBox="0 0 90 90"><g transform="translate(-1044 -3450.5)"><circle cx="45" cy="45" r="45" transform="translate(1044 3450.5)" fill="#7f6aee" opacity="0.2"/><g transform="translate(46.838 2595.327)"><g transform="translate(1020.162 898.219)"><path d="M1030.076,910.389a9.917,9.917,0,0,1-7.009-16.929l4.854-4.85a2.037,2.037,0,0,1,2.88,2.882l-4.854,4.85a5.837,5.837,0,0,0,0,8.258,5.976,5.976,0,0,0,8.264,0l4.85-4.852a2.037,2.037,0,0,1,2.88,2.88l-4.85,4.852a9.857,9.857,0,0,1-7.015,2.907Z" transform="translate(-1020.162 -888.014)" fill="#7f6aee"/></g><g transform="translate(1026.538 878.173)"><path d="M1038.766,914.222a2.039,2.039,0,0,1-1.707-.921,44.465,44.465,0,0,0-12.851-12.849,2.041,2.041,0,0,1-.715-2.587l8.907-18.538a2.036,2.036,0,0,1,2.951-.821,81.892,81.892,0,0,1,23.65,23.65,2.032,2.032,0,0,1-.819,2.953l-18.54,8.909a2.016,2.016,0,0,1-.878.2Zm-10.845-16.167a48.542,48.542,0,0,1,11.537,11.535l14.831-7.127a77.811,77.811,0,0,0-19.239-19.24l-7.129,14.833Z" transform="translate(-1023.292 -878.173)" fill="#7f6aee"/></g><g transform="translate(1034.294 915.438)"><path d="M1034.046,902.809a9.18,9.18,0,0,1-6.345-2.862,2.036,2.036,0,1,1,2.876-2.882c1.766,1.764,3.941,2.049,4.789,1.2a2.036,2.036,0,1,1,2.88,2.878,5.821,5.821,0,0,1-4.2,1.666Z" transform="translate(-1027.1 -896.468)" fill="#7f6aee"/></g></g></g></svg>