<svg xmlns="http://www.w3.org/2000/svg" xmlns:xlink="http://www.w3.org/1999/xlink" width="275.318" height="133.917" viewBox="0 0 275.318 133.917"><defs><clipPath id="a"><path d="M223.488-37.83c-83.109-37.457-97.017-6.259-126.573,16.69h0A31.8,31.8,0,0,1,52.29-26.755a31.8,31.8,0,0,1-6.635-17.753q-1.529-27.71-29.247-55.842c-63.793-64.743,141.122-57.678,207.081-16.308S306.6-.373,223.488-37.83Z" transform="translate(0 0)" fill="none" clip-rule="evenodd"/></clipPath><clipPath id="b"><path d="M-379,5305.15H3626.648V-357H-379Z" transform="translate(379 357)" fill="none"/></clipPath></defs><g transform="translate(-4.254 148.372)" clip-path="url(#a)"><g transform="translate(-795.319 -583.627)" clip-path="url(#b)"><path d="M295.5,24.123-5.417-2.2,8.163-157.417,309.077-131.09Z" transform="translate(784.814 573.802)" fill="rgba(1,192,136,0.1)"/></g></g></svg>