<svg xmlns="http://www.w3.org/2000/svg" xmlns:xlink="http://www.w3.org/1999/xlink" width="46.987" height="46.464" viewBox="0 0 46.987 46.464"><defs><clipPath id="a"><path d="M0,0H-46.987V46.464H0Z" transform="translate(0 0) rotate(180)" fill="none"/></clipPath></defs><g transform="translate(-0.013 0)"><g transform="translate(47) rotate(180)"><path d="M0,0H-46.987V46.464H0Z" transform="translate(0 0) rotate(180)" fill="none"/><g clip-path="url(#a)"><path d="M-46.98,28.723a11.362,11.362,0,0,1,1.06-3.585,4.522,4.522,0,0,1,1.3-1.8,4.743,4.743,0,0,1,1.967-.88,2.68,2.68,0,0,1-.8-.584c-1.142-1.272-.17-2.91-.625-4.415a.205.205,0,0,1,.214-.271c.005-.068.012-.136.022-.2a.29.29,0,0,1-.07-.426c.525-.595,0-2.459.018-3.3a6.348,6.348,0,0,0,.116-1.4,1.819,1.819,0,0,0-.2-1.664c0-.13-.027-.307-.034-.434A4.885,4.885,0,0,1-43.7,8.208a6.953,6.953,0,0,0,.384-2.754c-.075-.761-.42-1.476-.454-2.245a2.756,2.756,0,0,1,2.045-3.1c2.047-.523,3.856.98,5.352,2.154,3.651,2.864,7.057,6.059,8.751,10.482a63.618,63.618,0,0,1,3.527,14.45,4.817,4.817,0,0,1,1.089-.8.924.924,0,0,1,1.26.7,2.147,2.147,0,0,1-.027.661.19.19,0,0,1,.013.019,123.6,123.6,0,0,1,10.525-9.249,25.246,25.246,0,0,1,6.131-4c.367-.247.733-.477,1.066-.684A4.533,4.533,0,0,1-.411,13.1c.246.067.526.384.361.657a20.318,20.318,0,0,1-2.623,3.715.791.791,0,0,1,0,.232,1.557,1.557,0,0,1,0,.709,1.535,1.535,0,0,1-.353.663,4.759,4.759,0,0,1-1.556,2.1.581.581,0,0,1-.2.1c-.012.133-.026.267-.047.4a3.734,3.734,0,0,1-.9,2.2,9.415,9.415,0,0,0-1.309,2.433,3.869,3.869,0,0,1-.392.978c-.332.5-1.015.863-1.386,1.359-.352.471-.2.684-.671,1.1a3.393,3.393,0,0,1-1.124.608,2.328,2.328,0,0,0-.009.469,1.644,1.644,0,0,1,.173.8c0,.027-.006.049-.009.074.243.919.581,1.829-.132,2.759-.287.374-.72.475-1.016.789-.835.883-.577,1.565-.881,2.408A3.385,3.385,0,0,1-13.267,39a7.288,7.288,0,0,0-1.817,2.831c-.6,1.54-1.458,2.087-2.894,2.915-1.759,1.015-5.853,3.244-6.787.077-.586-1.987-.457-4.472-.524-6.53-.009-.272.179-1.329-.362-1.217a.764.764,0,0,0-.428.363A13.057,13.057,0,0,0-27.152,39.5c-.275.614-1.854,4.384-2.818,2.7a.588.588,0,0,1-.184-.545c.125-.756.22-1.517.346-2.273.079-.473.67-1.95.454-2.339-.376-.675-2.11,1.173-2.5,1.458a15.511,15.511,0,0,1-3.083,1.761c-2.754,1.157-5.155.538-8.014.176a1.048,1.048,0,0,1-.606-.212,1.032,1.032,0,0,1-.222-.382c-.786-1.982-1.217-4.083-2.12-5.985a11.04,11.04,0,0,1-1.076-5.14" transform="translate(0 0) rotate(180)" fill="#fadada"/></g></g><circle cx="2.66" cy="2.66" r="2.66" transform="translate(25.717 10.642)" fill="#fadada"/></g></svg>