<svg xmlns="http://www.w3.org/2000/svg" width="90" height="90" viewBox="0 0 90 90"><g transform="translate(-1044 -2552.5)"><circle cx="45" cy="45" r="45" transform="translate(1044 2552.5)" fill="#01c089" opacity="0.2"/><g transform="translate(846.797 1513.159)"><g transform="translate(225.203 1063.341)"><g transform="translate(19.79 27.456)"><path d="M236.948,1091.158a.912.912,0,0,1-.913-.914v-10.962a.913.913,0,0,1,.913-.914H247.91a.913.913,0,1,1,0,1.827H237.862v10.048a.913.913,0,0,1-.913.914Z" transform="translate(-236.035 -1078.369)" fill="#01c089"/></g><path d="M245.906,1104.5H227.03a1.825,1.825,0,0,1-1.827-1.827v-37.5a1.825,1.825,0,0,1,1.827-1.827h29.838a1.826,1.826,0,0,1,1.827,1.827v26.542a1.827,1.827,0,0,1-.535,1.292L247.2,1103.964a1.826,1.826,0,0,1-1.292.535Zm-17.049-3.654H245.15l9.891-9.891v-23.959H228.857v33.85Z" transform="translate(-225.203 -1063.341)" fill="#01c089"/></g><g transform="translate(234.298 1077.73)"><path d="M243.655,1074.871H232.008a1.827,1.827,0,0,1,0-3.654h11.647a1.827,1.827,0,1,1,0,3.654Z" transform="translate(-230.181 -1071.217)" fill="#01c089"/></g><g transform="translate(240.122 1071.906)"><path d="M235.2,1083.33a1.825,1.825,0,0,1-1.827-1.827v-11.647a1.827,1.827,0,0,1,3.654,0V1081.5a1.826,1.826,0,0,1-1.827,1.827Z" transform="translate(-233.369 -1068.029)" fill="#01c089"/></g></g></g></svg>