<svg xmlns="http://www.w3.org/2000/svg" width="57.947" height="65.203" viewBox="0 0 57.947 65.203"><g transform="translate(-160.723 -936.823)"><g transform="translate(201.558 959.964)"><path d="M193,988.8H180.556a2.333,2.333,0,0,1-2.333-2.333v-37.4a2.333,2.333,0,0,1,2.333-2.333H193a2.333,2.333,0,0,1,2.333,2.333v37.4A2.333,2.333,0,0,1,193,988.8Zm-10.111-4.667h7.777V951.407H182.89v32.729Z" transform="translate(-178.223 -946.74)" fill="#fd954e"/></g><g transform="translate(181.141 975.966)"><path d="M184.251,979.658H171.806a2.333,2.333,0,0,1-2.333-2.333V955.931a2.331,2.331,0,0,1,2.333-2.333h12.444a2.331,2.331,0,0,1,2.333,2.333v21.393a2.333,2.333,0,0,1-2.333,2.333Zm-10.111-4.667h7.777V958.265H174.14v16.726Z" transform="translate(-169.473 -953.598)" fill="#fd954e"/></g><g transform="translate(160.723 987.575)"><path d="M175.5,973.024H163.056a2.333,2.333,0,0,1-2.333-2.333v-9.784a2.333,2.333,0,0,1,2.333-2.333H175.5a2.333,2.333,0,0,1,2.333,2.333v9.784a2.333,2.333,0,0,1-2.333,2.333Zm-10.111-4.667h7.777V963.24H165.39v5.117Z" transform="translate(-160.723 -958.573)" fill="#fd954e"/></g><g transform="translate(198.2 936.823)"><path d="M179.118,959.555a2.331,2.331,0,0,1-1.65-3.981l7.376-7.385-7.376-7.383a2.332,2.332,0,1,1,3.3-3.3l9.023,9.033a2.328,2.328,0,0,1,0,3.3l-9.023,9.033a2.321,2.321,0,0,1-1.65.684Z" transform="translate(-176.784 -936.823)" fill="#fd954e"/></g><g transform="translate(167.501 945.855)"><path d="M165.962,975.721a2.408,2.408,0,0,1-.443-.042,2.333,2.333,0,0,1-1.848-2.735,39.7,39.7,0,0,1,38.805-32.251,2.333,2.333,0,0,1,0,4.667,35.033,35.033,0,0,0-34.225,28.47,2.333,2.333,0,0,1-2.289,1.89Z" transform="translate(-163.628 -940.694)" fill="#fd954e"/></g></g></svg>