<svg xmlns="http://www.w3.org/2000/svg" width="40.291" height="43.643" viewBox="0 0 40.291 43.643"><g transform="translate(-1693.815 -753.156)"><g transform="translate(1693.815 753.156)"><path d="M1695.659,796.8a1.842,1.842,0,0,1-1.844-1.844V755a1.844,1.844,0,1,1,3.688,0v39.955a1.844,1.844,0,0,1-1.844,1.844Z" transform="translate(-1693.815 -753.156)" fill="#01c089"/></g><g transform="translate(1694.095 753.364)"><path d="M1724.62,790.657c-3.9,0-7.671-1.776-11.317-3.493-3.485-1.643-6.782-3.194-9.98-3.194a9.429,9.429,0,0,0-6.72,2.917,1.564,1.564,0,0,1-2.637-1.138V758.176a1.566,1.566,0,0,1,.489-1.138,12.542,12.542,0,0,1,8.868-3.769c3.9,0,7.667,1.774,11.313,3.493,3.489,1.641,6.782,3.194,9.983,3.194a9.441,9.441,0,0,0,6.72-2.917,1.565,1.565,0,0,1,2.576,1.575c-1.7,5.846-3.458,11.217-5.351,16.4a74.076,74.076,0,0,0,5.163,9.891,1.567,1.567,0,0,1-.242,1.986,12.541,12.541,0,0,1-8.866,3.769Zm-21.3-9.814c3.9,0,7.667,1.776,11.313,3.493,3.489,1.641,6.782,3.194,9.983,3.194a9.123,9.123,0,0,0,5.755-2.089,85.877,85.877,0,0,1-4.931-9.744,1.566,1.566,0,0,1-.035-1.173c1.483-4.022,2.877-8.154,4.229-12.538a11.722,11.722,0,0,1-5.018,1.1c-3.9,0-7.671-1.776-11.317-3.493-3.485-1.643-6.782-3.194-9.98-3.194a9.326,9.326,0,0,0-6.231,2.475v23.714a11.8,11.8,0,0,1,6.231-1.743Z" transform="translate(-1693.967 -753.269)" fill="#01c089"/></g></g></svg>