<svg xmlns="http://www.w3.org/2000/svg" width="47.321" height="47.321" viewBox="0 0 47.321 47.321"><g transform="translate(-345.281 -1000.709)"><g transform="translate(345.281 1000.709)"><path d="M390.617,1048.03h-43.35a1.984,1.984,0,0,1-1.985-1.985v-43.35a1.985,1.985,0,1,1,3.971,0v41.365h41.365a1.985,1.985,0,1,1,0,3.971Z" transform="translate(-345.281 -1000.709)" fill="#7f6aee"/></g><g transform="translate(345.942 1000.709)"><g transform="translate(0 0.397)"><path d="M347.6,1047.071a1.985,1.985,0,0,1-1.648-3.09l10.424-15.552a1.981,1.981,0,0,1,2.537-.671l3.415,1.708,6.451-14.948a1.977,1.977,0,0,1,2.45-1.1l3.818,1.273,13.61-13.223a1.985,1.985,0,1,1,2.768,2.847l-14.476,14.063a1.973,1.973,0,0,1-2.013.459l-3.234-1.076-6.56,15.2a1.985,1.985,0,0,1-2.71.989l-3.729-1.866-9.451,14.1a1.985,1.985,0,0,1-1.652.88Z" transform="translate(-345.614 -1000.909)" fill="#7f6aee"/></g><g transform="translate(28.357)"><path d="M376.214,1019.013a1.984,1.984,0,0,1-1.985-1.985V1004.68H361.881a1.985,1.985,0,0,1,0-3.971h14.333a1.985,1.985,0,0,1,1.985,1.985v14.333a1.985,1.985,0,0,1-1.985,1.985Z" transform="translate(-359.896 -1000.709)" fill="#7f6aee"/></g></g><g transform="translate(354.71 1040.65)"><path d="M351.023,1027.114a.991.991,0,0,1-.993-.993v-4.3a.993.993,0,1,1,1.985,0v4.3a.992.992,0,0,1-.993.993Z" transform="translate(-350.03 -1020.826)" fill="#7f6aee"/><g transform="translate(8.48)"><path d="M355.294,1027.114a.992.992,0,0,1-.993-.993v-4.3a.993.993,0,1,1,1.985,0v4.3a.991.991,0,0,1-.993.993Z" transform="translate(-354.301 -1020.826)" fill="#7f6aee"/></g><g transform="translate(16.962)"><path d="M359.566,1027.114a.991.991,0,0,1-.993-.993v-4.3a.993.993,0,1,1,1.985,0v4.3a.992.992,0,0,1-.993.993Z" transform="translate(-358.573 -1020.826)" fill="#7f6aee"/></g><g transform="translate(25.442)"><path d="M363.837,1027.114a.992.992,0,0,1-.993-.993v-4.3a.993.993,0,1,1,1.985,0v4.3a.991.991,0,0,1-.993.993Z" transform="translate(-362.844 -1020.826)" fill="#7f6aee"/></g><g transform="translate(33.923)"><path d="M368.109,1027.114a.991.991,0,0,1-.993-.993v-4.3a.993.993,0,1,1,1.985,0v4.3a.992.992,0,0,1-.993.993Z" transform="translate(-367.116 -1020.826)" fill="#7f6aee"/></g></g><g transform="translate(346.357 1002.843)"><path d="M351.118,1003.769h-4.3a.993.993,0,1,1,0-1.985h4.3a.993.993,0,1,1,0,1.985Z" transform="translate(-345.823 -1001.784)" fill="#7f6aee"/><g transform="translate(0 8.48)"><path d="M351.118,1008.04h-4.3a.993.993,0,1,1,0-1.985h4.3a.993.993,0,1,1,0,1.985Z" transform="translate(-345.823 -1006.055)" fill="#7f6aee"/></g><g transform="translate(0 16.96)"><path d="M351.118,1012.311h-4.3a.993.993,0,1,1,0-1.985h4.3a.993.993,0,1,1,0,1.985Z" transform="translate(-345.823 -1010.326)" fill="#7f6aee"/></g><g transform="translate(0 25.442)"><path d="M351.118,1016.583h-4.3a.993.993,0,1,1,0-1.985h4.3a.993.993,0,1,1,0,1.985Z" transform="translate(-345.823 -1014.598)" fill="#7f6aee"/></g><g transform="translate(0 33.922)"><path d="M351.118,1020.854h-4.3a.993.993,0,1,1,0-1.985h4.3a.993.993,0,1,1,0,1.985Z" transform="translate(-345.823 -1018.869)" fill="#7f6aee"/></g></g></g></svg>