<svg xmlns="http://www.w3.org/2000/svg" width="48.751" height="49.574" viewBox="0 0 48.751 49.574"><g transform="translate(-406.845 -691.576)"><g transform="translate(406.845 691.576)"><path d="M428.113,734.118a21.271,21.271,0,1,1,21.278-21.27,21.3,21.3,0,0,1-21.278,21.27Zm0-38.274a17,17,0,1,0,17.006,17.007,17.034,17.034,0,0,0-17.006-17.007Z" transform="translate(-406.845 -691.576)" fill="#01c089"/></g><g transform="translate(414.021 698.748)"><path d="M412.342,709.033h-2.134a14.113,14.113,0,0,1,14.1-14.1v2.134a11.977,11.977,0,0,0-11.962,11.962Z" transform="translate(-410.208 -694.937)" fill="#01c089"/></g><g transform="translate(439.447 725.003)"><path d="M436.139,723.389a2.128,2.128,0,0,1-1.509-.625L422.75,710.883a2.133,2.133,0,0,1,3.017-3.017l11.881,11.881a2.134,2.134,0,0,1-1.509,3.642Z" transform="translate(-422.124 -707.242)" fill="#01c089"/></g></g></svg>