<svg xmlns="http://www.w3.org/2000/svg" width="90" height="90" viewBox="0 0 90 90"><g transform="translate(-789 -2098.5)"><circle cx="45" cy="45" r="45" transform="translate(789 2098.5)" fill="#fd954e" opacity="0.2"/><g transform="translate(407.155 1430.924)"><g transform="translate(406.845 691.576)"><path d="M424.5,726.9a17.66,17.66,0,1,1,17.666-17.659A17.68,17.68,0,0,1,424.5,726.9Zm0-31.776a14.117,14.117,0,1,0,14.119,14.119,14.142,14.142,0,0,0-14.119-14.119Z" transform="translate(-406.845 -691.576)" fill="#fd954e"/></g><g transform="translate(412.803 697.53)"><path d="M411.979,706.64h-1.772a11.717,11.717,0,0,1,11.7-11.7v1.771a9.944,9.944,0,0,0-9.931,9.931Z" transform="translate(-410.208 -694.937)" fill="#fd954e"/></g><g transform="translate(433.912 719.328)"><path d="M433.76,720.648a1.766,1.766,0,0,1-1.253-.519l-9.864-9.864a1.771,1.771,0,0,1,2.5-2.5l9.864,9.864a1.772,1.772,0,0,1-1.252,3.024Z" transform="translate(-422.124 -707.242)" fill="#fd954e"/></g></g></g></svg>