<svg xmlns="http://www.w3.org/2000/svg" width="90" height="90" viewBox="0 0 90 90"><g transform="translate(-789 -3894.5)"><circle cx="45" cy="45" r="45" transform="translate(789 3894.5)" fill="#fd954e" opacity="0.2"/><g transform="translate(813 3922.5)"><g transform="translate(0 0)"><path d="M1475.679,794.979h.061a1.845,1.845,0,0,0,1.692-1.273l12.169-37.473a1.843,1.843,0,0,0-2.322-2.322l-37.469,12.175a1.842,1.842,0,0,0-.118,3.462l17.318,6.954,6.961,17.321a1.838,1.838,0,0,0,1.708,1.155Zm9.3-36.445-9.479,29.2-5.362-13.339a1.831,1.831,0,0,0-1.023-1.021l-13.335-5.357,29.2-9.486Z" transform="translate(-1448.536 -753.821)" fill="#fd954e"/></g><g transform="translate(18.046 0)"><path d="M1450.378,776.928a1.833,1.833,0,0,0,1.3-.54l19.424-19.422a1.842,1.842,0,1,0-2.606-2.606l-19.423,19.422a1.843,1.843,0,0,0,1.3,3.146Z" transform="translate(-1448.535 -753.821)" fill="#fd954e"/></g></g></g></svg>