<svg xmlns="http://www.w3.org/2000/svg" width="90" height="90" viewBox="0 0 90 90"><g transform="translate(-789 -2996.5)"><circle cx="45" cy="45" r="45" transform="translate(789 2996.5)" fill="#f8a0ae" opacity="0.2"/><g transform="translate(-572.66 1525.028)"><g transform="translate(1386.66 1509.628)"><path d="M1393.083,1516.857a6.422,6.422,0,1,1,6.422-6.422,6.43,6.43,0,0,1-6.422,6.422Zm0-9.53a3.108,3.108,0,1,0,3.107,3.107,3.111,3.111,0,0,0-3.107-3.107Z" transform="translate(-1386.66 -1504.013)" fill="#f8a0ae"/></g><g transform="translate(1413.039 1495.472)"><path d="M1409,1508.317a6.422,6.422,0,1,1,6.422-6.422,6.431,6.431,0,0,1-6.422,6.422Zm0-9.53a3.108,3.108,0,1,0,3.108,3.108,3.112,3.112,0,0,0-3.108-3.108Z" transform="translate(-1402.576 -1495.472)" fill="#f8a0ae"/><g transform="translate(0 28.313)"><path d="M1409,1525.4a6.422,6.422,0,1,1,6.422-6.422A6.431,6.431,0,0,1,1409,1525.4Zm0-9.53a3.108,3.108,0,1,0,3.108,3.108,3.112,3.112,0,0,0-3.108-3.108Z" transform="translate(-1402.576 -1512.555)" fill="#f8a0ae"/></g></g><g transform="translate(1395.983 1502.751)"><g transform="translate(0 13.513)"><path d="M1410.859,1521.1a1.655,1.655,0,0,1-.829-.222l-16.917-9.767a1.658,1.658,0,0,1,1.657-2.872l16.917,9.769a1.657,1.657,0,0,1-.828,3.093Z" transform="translate(-1392.285 -1508.017)" fill="#f8a0ae"/></g><path d="M1393.945,1512.948a1.658,1.658,0,0,1-.832-3.093l16.917-9.769a1.657,1.657,0,1,1,1.657,2.87l-16.917,9.769a1.633,1.633,0,0,1-.826.222Z" transform="translate(-1392.285 -1499.864)" fill="#f8a0ae"/></g></g></g></svg>