<svg xmlns="http://www.w3.org/2000/svg" xmlns:xlink="http://www.w3.org/1999/xlink" width="338.687" height="213" viewBox="0 0 338.687 213"><defs><clipPath id="a"><path d="M67.52,0H0V66.768H67.52Z" transform="translate(67.52 66.768) rotate(180)" fill="none"/></clipPath></defs><g transform="translate(-756.573 -319)"><g transform="translate(825 319)"><g transform="translate(0 0)"><g transform="translate(0 44.159)"><path d="M341.591,96.011a11.844,11.844,0,0,1-4.241,4.968,16.435,16.435,0,0,1-7.021,2.264q-5.857.707-9.195-1.54t-4.109-8.668a44.088,44.088,0,0,1-.241-4.687l.154-9.439-5.209.69L310.051,69.4l7.044-.973.09-5.178,11.7-1.989-.048,5.492,6.6-.923,2.483,10.418-9.22,1.173-.045,8.2a7.16,7.16,0,0,0,.067,1.091,4.875,4.875,0,0,0,1.47,3.114,3.461,3.461,0,0,0,2.892.945q2.672-.32,4.087-3.591Z" transform="translate(-310.051 -32.167)" fill="#101727"/><path d="M364.979,103.707,351.745,105.3l-2.962-17.069a8.341,8.341,0,0,0-1.823-4.14,4.136,4.136,0,0,0-3.868-1.313q-4.452.539-3.975,8.292l1.992,15.448-13.389,1.419-6.85-51.01,13.818.011L337.029,74.8q3-3.459,8.926-4.174a14.277,14.277,0,0,1,6.853.923,14.511,14.511,0,0,1,9.184,11.672Z" transform="translate(-290.524 -39.996)" fill="#101727"/><path d="M364.059,94.956l-.289-2.415q-2.84,3.762-9.2,4.527a13.233,13.233,0,0,1-7.995-1.523,17.177,17.177,0,0,1-6.328-5.919,20.029,20.029,0,0,1-3.108-8.665,18.992,18.992,0,0,1,6.1-16.323,13.026,13.026,0,0,1,7.15-3.346q6.362-.766,9.506,2.275l-.283-2.356L370.553,59.9l5.6,33.6ZM360.7,82.608A6.093,6.093,0,0,0,361.761,78a5.72,5.72,0,0,0-2.21-4.126A6.14,6.14,0,0,0,355,72.807a5.764,5.764,0,0,0-3.969,2.157,5.6,5.6,0,0,0-1.187,4.337,6.2,6.2,0,0,0,1.108,2.808,6.651,6.651,0,0,0,2.418,2.1,5.443,5.443,0,0,0,3.2.547A5.79,5.79,0,0,0,360.7,82.608Z" transform="translate(-261.418 -34.638)" fill="#101727"/><path d="M374.752,78.2a8.3,8.3,0,0,0-1.585-4.584,3.576,3.576,0,0,0-3.38-1.274,3.5,3.5,0,0,0-3.032,1.882,9.419,9.419,0,0,0-.351,4.856l-.062,0,1.826,15.725L354.937,96.4,350.62,62.193l13.47-2.331.306,2.547a13.822,13.822,0,0,1,8.014-4.194q6.556-.791,10.415,3.652t4.889,12.971l2.129,17.17L376.289,93.64Z" transform="translate(-236.821 -37.887)" fill="#101727"/><path d="M406.425,100.171l-13.271,2.376-10.83-12.191,1.492,12.412L370.472,104.5l-6.185-51.347L377.7,50.891l3.3,28.009,5.408-11.375,13.476-.651L392.1,83.113Z" transform="translate(-212.151 -50.891)" fill="#101727"/></g><g transform="translate(93.973 82.578)"><path d="M380.969,75.253l-5.585,34.567q-1.569,8.962-5.647,13.686a15.262,15.262,0,0,1-9.994,5.433,20.831,20.831,0,0,1-5.411-.157,39.688,39.688,0,0,1-5.936-1.318l3.394-13.063a6.926,6.926,0,0,0,2.94,1.616,8.372,8.372,0,0,0,3.467.648,4.982,4.982,0,0,0,3.206-1.518,8.106,8.106,0,0,0,1.762-3.344l-19.613-31.01,13.664-1.776,8.463,16.154L367.953,77.6Z" transform="translate(-343.552 -45.334)" fill="#101727"/><path d="M369.1,109.094a19.821,19.821,0,0,1-7.706-6.073,18.181,18.181,0,0,1-3.7-9.049,16.112,16.112,0,0,1,1.442-8.917,18.155,18.155,0,0,1,6.048-7.153,20.068,20.068,0,0,1,9.389-3.518,18.771,18.771,0,0,1,9.532,1.175,16.616,16.616,0,0,1,7.153,5.5,17.463,17.463,0,0,1,3.352,8.536,19.117,19.117,0,0,1-7.145,17.321,17.406,17.406,0,0,1-8.794,3.644A17.794,17.794,0,0,1,369.1,109.094Zm11.829-12.982a6.062,6.062,0,0,0-.965-8.272,5.456,5.456,0,0,0-4.379-1.248,5.794,5.794,0,0,0-4.1,2.168A5.977,5.977,0,0,0,377,98.3,5.6,5.6,0,0,0,380.931,96.112Z" transform="translate(-318.246 -47.192)" fill="#101727"/><path d="M397.292,108.789l-.306-2.547a13.821,13.821,0,0,1-8.017,4.194q-6.551.783-10.412-3.652t-4.886-12.971L371.539,76.64l13.554-1.633,1.534,15.442a8.264,8.264,0,0,0,1.585,4.581,3.582,3.582,0,0,0,3.38,1.276,3.493,3.493,0,0,0,3.032-1.885,9.369,9.369,0,0,0,.353-4.853l.062-.008-1.826-15.722,13.237-1.593,4.311,34.211Z" transform="translate(-293.033 -50.766)" fill="#101727"/><path d="M390.082,98.765,385.022,68l13.936-1.677,3.532,29.852Zm3.027,13.866a7.05,7.05,0,0,1-2.64-4.749,6.451,6.451,0,0,1,.626-3.655,7.71,7.71,0,0,1,5.978-4.241,6.685,6.685,0,0,1,4.965,1.274,6.607,6.607,0,0,1,2.539,4.732,7.359,7.359,0,0,1-1.38,5.425,6.638,6.638,0,0,1-4.741,2.738A6.806,6.806,0,0,1,393.109,112.631Z" transform="translate(-268.695 -61.461)" fill="#101727"/><path d="M397.273,97.9l-5.06-30.763,13.933-1.68L409.68,95.3Zm3.027,13.868a7.042,7.042,0,0,1-2.637-4.749,6.4,6.4,0,0,1,.625-3.655,7.51,7.51,0,0,1,2.457-2.884,7.681,7.681,0,0,1,3.518-1.358,6.681,6.681,0,0,1,4.962,1.273,6.589,6.589,0,0,1,2.541,4.732,7.356,7.356,0,0,1-1.38,5.428,6.631,6.631,0,0,1-4.738,2.732A6.807,6.807,0,0,1,400.3,111.765Z" transform="translate(-255.715 -63.024)" fill="#101727"/><path d="M404.464,97.031,399.4,66.264l13.936-1.677,3.529,29.854Zm3.027,13.868a7.046,7.046,0,0,1-2.64-4.749,6.383,6.383,0,0,1,.628-3.655,7.467,7.467,0,0,1,2.46-2.881,7.571,7.571,0,0,1,3.515-1.36,6.656,6.656,0,0,1,4.962,1.274,6.584,6.584,0,0,1,2.541,4.732,7.335,7.335,0,0,1-1.383,5.425,6.609,6.609,0,0,1-4.738,2.735A6.78,6.78,0,0,1,407.491,110.9Z" transform="translate(-242.735 -64.587)" fill="#101727"/></g><g transform="translate(180.572 0)"><path d="M376.791,70.559a2.726,2.726,0,0,1-2.362-2.853l1.68-29.981a2.725,2.725,0,0,1,2.875-2.572,2.7,2.7,0,0,1,2.572,2.875l-1.68,29.981A2.729,2.729,0,0,1,377,70.581C376.931,70.576,376.858,70.57,376.791,70.559Z" transform="translate(-374.424 -35.148)" fill="#a93a8c"/><g transform="translate(16.372 10.193)"><path d="M382.626,69.273a2.758,2.758,0,0,1-1.139-.426,2.727,2.727,0,0,1-.774-3.778L397.251,40a2.728,2.728,0,0,1,4.555,3L385.268,68.073A2.733,2.733,0,0,1,382.626,69.273Z" transform="translate(-380.261 -38.782)" fill="#a93a8c"/></g><g transform="translate(27.016 37.39)"><path d="M386.424,63.528a2.727,2.727,0,0,1-.513-5.288l28.446-9.619a2.729,2.729,0,0,1,1.75,5.17l-28.449,9.616A2.7,2.7,0,0,1,386.424,63.528Z" transform="translate(-384.056 -48.478)" fill="#a93a8c"/></g></g><g transform="translate(61.771 171.187)"><g transform="translate(54.221 5.716)"><path d="M363.761,132.117a2.732,2.732,0,0,1-2.589-1.854l-9.627-28.443a2.73,2.73,0,0,1,5.173-1.75l9.624,28.443a2.732,2.732,0,0,1-2.581,3.6Z" transform="translate(-351.402 -98.213)" fill="#a93a8c"/></g><g transform="translate(31.072 6.936)"><path d="M345.883,133.526a2.629,2.629,0,0,1-.55-.053,2.727,2.727,0,0,1-2.129-3.217l5.994-29.422a2.728,2.728,0,1,1,5.346,1.088l-5.994,29.422A2.726,2.726,0,0,1,345.883,133.526Z" transform="translate(-343.149 -98.648)" fill="#a93a8c"/></g><path d="M334.8,121.164a2.728,2.728,0,0,1-1.778-4.8L355.833,96.83a2.727,2.727,0,0,1,3.548,4.143l-22.808,19.535A2.726,2.726,0,0,1,334.8,121.164Z" transform="translate(-332.072 -96.176)" fill="#a93a8c"/></g></g><g transform="translate(128.877 103.788)"><ellipse cx="16.977" cy="18.283" rx="16.977" ry="18.283" transform="translate(7.913 5.908)" fill="#fff"/><g transform="translate(0 0)"><g transform="matrix(0.956, 0.292, -0.292, 0.956, 11.077, 0)" fill="#e48050"><path d="M 18.94366645812988 38.38675689697266 C 8.222386360168457 38.38675689697266 -0.500003457069397 29.66462707519531 -0.500003457069397 18.94366645812988 C -0.500003457069397 8.222386360168457 8.222386360168457 -0.500003457069397 18.94366645812988 -0.500003457069397 C 29.66462707519531 -0.500003457069397 38.38675689697266 8.222386360168457 38.38675689697266 18.94366645812988 C 38.38675689697266 29.66462707519531 29.66462707519531 38.38675689697266 18.94366645812988 38.38675689697266 Z M 18.94366645812988 3.026056528091431 C 10.16666698455811 3.026056528091431 3.026056528091431 10.16666698455811 3.026056528091431 18.94366645812988 C 3.026056528091431 27.72067642211914 10.16666698455811 34.86128616333008 18.94366645812988 34.86128616333008 C 27.72067642211914 34.86128616333008 34.86128616333008 27.72067642211914 34.86128616333008 18.94366645812988 C 34.86128616333008 10.16666698455811 27.72067642211914 3.026056528091431 18.94366645812988 3.026056528091431 Z" stroke="none"/><path d="M 18.94366645812988 37.88675689697266 C 29.3889274597168 37.88675689697266 37.88675689697266 29.3889274597168 37.88675689697266 18.94366645812988 C 37.88675689697266 8.498096466064453 29.3889274597168 -3.458862238403526e-06 18.94366645812988 -3.458862238403526e-06 C 8.498096466064453 -3.458862238403526e-06 -3.458862238403526e-06 8.498096466064453 -3.458862238403526e-06 18.94366645812988 C -3.458862238403526e-06 29.3889274597168 8.498096466064453 37.88675689697266 18.94366645812988 37.88675689697266 M 18.94366645812988 2.526056528091431 C 27.99637603759766 2.526056528091431 35.36128616333008 9.890966415405273 35.36128616333008 18.94366645812988 C 35.36128616333008 27.99637603759766 27.99637603759766 35.36128616333008 18.94366645812988 35.36128616333008 C 9.890966415405273 35.36128616333008 2.526056528091431 27.99637603759766 2.526056528091431 18.94366645812988 C 2.526056528091431 9.890966415405273 9.890966415405273 2.526056528091431 18.94366645812988 2.526056528091431 M 18.94366645812988 38.88675689697266 C 7.946686744689941 38.88675689697266 -1.000003457069397 29.94032669067383 -1.000003457069397 18.94366645812988 C -1.000003457069397 7.946686744689941 7.946686744689941 -1.000003457069397 18.94366645812988 -1.000003457069397 C 29.94032669067383 -1.000003457069397 38.88675689697266 7.946686744689941 38.88675689697266 18.94366645812988 C 38.88675689697266 29.94032669067383 29.94032669067383 38.88675689697266 18.94366645812988 38.88675689697266 Z M 18.94366645812988 3.526056528091431 C 10.44236660003662 3.526056528091431 3.526056528091431 10.44236660003662 3.526056528091431 18.94366645812988 C 3.526056528091431 27.44496726989746 10.44236660003662 34.36128616333008 18.94366645812988 34.36128616333008 C 27.44496726989746 34.36128616333008 34.36128616333008 27.44496726989746 34.36128616333008 18.94366645812988 C 34.36128616333008 10.44236660003662 27.44496726989746 3.526056528091431 18.94366645812988 3.526056528091431 Z" stroke="none" fill="#fff"/></g><path d="M10.1,7.577A7.585,7.585,0,0,1,2.526,0H0A10.115,10.115,0,0,0,10.1,10.1,10.115,10.115,0,0,0,20.206,0H17.681A7.585,7.585,0,0,1,10.1,7.577Z" transform="matrix(0.956, 0.292, -0.292, 0.956, 13.623, 21.909)" fill="#e48050"/><path d="M3.788,7.578A3.789,3.789,0,1,1,7.578,3.788,3.793,3.793,0,0,1,3.788,7.578Zm0-5.052A1.263,1.263,0,1,0,5.052,3.788,1.264,1.264,0,0,0,3.788,2.526Z" transform="matrix(0.956, 0.292, -0.292, 0.956, 16.946, 11.039)" fill="#e48050"/><path d="M3.788,7.578A3.789,3.789,0,1,1,7.578,3.788,3.793,3.793,0,0,1,3.788,7.578Zm0-5.052A1.263,1.263,0,1,0,5.052,3.788,1.264,1.264,0,0,0,3.788,2.526Z" transform="matrix(0.956, 0.292, -0.292, 0.956, 29.023, 14.731)" fill="#e48050"/></g></g></g><g transform="translate(756.573 319.554)"><g transform="translate(67.52 66.768) rotate(180)"><path d="M67.52,0H0V66.768H67.52Z" transform="translate(67.52 66.768) rotate(180)" fill="none"/><g transform="translate(0 0)" clip-path="url(#a)"><path d="M.011,41.274a16.327,16.327,0,0,1,1.523-5.152,6.5,6.5,0,0,1,1.875-2.593,6.815,6.815,0,0,1,2.826-1.265,3.851,3.851,0,0,1-1.148-.839c-1.641-1.828-.244-4.182-.9-6.344a.3.3,0,0,1,.308-.389c.008-.1.017-.2.032-.289a.417.417,0,0,1-.1-.612c.755-.855,0-3.534.026-4.749a9.121,9.121,0,0,0,.167-2.013,2.613,2.613,0,0,0-.288-2.392c-.006-.187-.039-.441-.048-.624A7.02,7.02,0,0,1,4.726,11.8a9.991,9.991,0,0,0,.552-3.958c-.108-1.093-.6-2.122-.652-3.226C4.532,2.473,5.4.709,7.565.154c2.941-.752,5.541,1.409,7.691,3.1C20.5,7.365,25.4,11.956,27.83,18.311A91.418,91.418,0,0,1,32.9,39.076a6.922,6.922,0,0,1,1.565-1.149,1.328,1.328,0,0,1,1.811,1.01,3.085,3.085,0,0,1-.039.949.272.272,0,0,1,.019.027c4.575-4.821,10.067-9.06,15.124-13.291a36.278,36.278,0,0,1,8.81-5.746c.528-.355,1.053-.685,1.531-.983a6.514,6.514,0,0,1,5.21-1.068c.354.1.756.552.519.945a29.2,29.2,0,0,1-3.77,5.338,1.137,1.137,0,0,1,0,.333,2.238,2.238,0,0,1,.007,1.019,2.206,2.206,0,0,1-.508.952,6.839,6.839,0,0,1-2.236,3.016.835.835,0,0,1-.284.139c-.017.191-.038.383-.068.577a5.365,5.365,0,0,1-1.3,3.167,13.529,13.529,0,0,0-1.88,3.5,5.56,5.56,0,0,1-.563,1.406c-.477.721-1.459,1.241-1.991,1.953-.507.677-.285.983-.965,1.585a4.876,4.876,0,0,1-1.615.873,3.346,3.346,0,0,0-.013.673,2.362,2.362,0,0,1,.249,1.153c0,.039-.009.07-.013.106.349,1.32.835,2.628-.19,3.965-.413.537-1.034.682-1.46,1.134-1.2,1.269-.829,2.249-1.266,3.461a4.865,4.865,0,0,1-1.132,1.932,10.473,10.473,0,0,0-2.611,4.069c-.857,2.213-2.095,3-4.158,4.189-2.528,1.458-8.41,4.662-9.754.111-.842-2.855-.657-6.427-.753-9.383-.013-.391.257-1.91-.52-1.749a1.1,1.1,0,0,0-.616.521A18.762,18.762,0,0,0,28.5,56.765c-.395.882-2.665,6.3-4.049,3.88a.845.845,0,0,1-.264-.782c.179-1.086.316-2.181.5-3.267.113-.679.963-2.8.652-3.361-.54-.97-3.032,1.686-3.6,2.095a22.29,22.29,0,0,1-4.431,2.531c-3.957,1.662-7.408.773-11.515.253a1.505,1.505,0,0,1-.871-.3A1.483,1.483,0,0,1,4.6,57.26c-1.129-2.848-1.748-5.867-3.047-8.6A15.864,15.864,0,0,1,.011,41.274" transform="translate(67.52 66.768) rotate(180)" fill="#fadada"/></g></g><circle cx="3.823" cy="3.823" r="3.823" transform="translate(36.937 15.291)" fill="#fadada"/></g></g></svg>