<svg xmlns="http://www.w3.org/2000/svg" width="43.632" height="43.643" viewBox="0 0 43.632 43.643"><g transform="translate(-1569.895 -691.416)"><path d="M1586.583,697.714l-2.519,7.754h-8.154l6.6,4.794-2.519,7.754,6.594-4.794,6.6,4.794-2.519-7.754,6.594-4.794H1589.1l-2.519-7.754Z" transform="translate(5.131 5.372)" fill="#7f6aee"/><g transform="translate(1569.895 691.416)"><path d="M1591.711,735.059a21.822,21.822,0,1,1,15.436-6.391,21.681,21.681,0,0,1-15.436,6.391Zm0-39.937a18.114,18.114,0,1,0,12.812,5.3,18,18,0,0,0-12.812-5.3Z" transform="translate(-1569.895 -691.416)" fill="#7f6aee"/></g></g></svg>